<?xml version="1.0" encoding="UTF-8" standalone="no"?>
<!-- Created with Inkscape (http://www.inkscape.org/) -->

<svg
   width="50.000011mm"
   height="78.948647mm"
   viewBox="0 0 50.00001 78.948648"
   version="1.1"
   id="svg5"
   xml:space="preserve"
   inkscape:version="1.2.2 (732a01da63, 2022-12-09)"
   sodipodi:docname="favicon.svg"
   xmlns:inkscape="http://www.inkscape.org/namespaces/inkscape"
   xmlns:sodipodi="http://sodipodi.sourceforge.net/DTD/sodipodi-0.dtd"
   xmlns="http://www.w3.org/2000/svg"
   xmlns:svg="http://www.w3.org/2000/svg"><sodipodi:namedview
     id="namedview7"
     pagecolor="#ffffff"
     bordercolor="#000000"
     borderopacity="0.25"
     inkscape:showpageshadow="2"
     inkscape:pageopacity="0.0"
     inkscape:pagecheckerboard="true"
     inkscape:deskcolor="#d1d1d1"
     inkscape:document-units="mm"
     showgrid="false"
     inkscape:zoom="2"
     inkscape:cx="41.25"
     inkscape:cy="122.25"
     inkscape:window-width="1920"
     inkscape:window-height="991"
     inkscape:window-x="-9"
     inkscape:window-y="-9"
     inkscape:window-maximized="1"
     inkscape:current-layer="layer1" /><defs
     id="defs2" /><g
     inkscape:label="Capa 1"
     inkscape:groupmode="layer"
     id="layer1"
     transform="translate(1485.4471,-3151.8727)"><path
       d="m -1453.1574,3207.1005 c 9.7408,-12.95 17.7103,-23.5797 17.7103,-23.6217 0,-0.042 -4.8192,-0.074 -10.7096,-0.074 -10.4503,0 -10.7092,0 -10.7092,-0.2589 0,-0.1433 0.8551,-7.2036 1.9002,-15.6915 1.0451,-8.4878 1.8839,-15.4992 1.8639,-15.5812 -0.025,-0.082 -7.2958,10.4644 -16.1681,23.4358 -8.8725,12.9715 -16.1524,23.6378 -16.1771,23.703 -0.025,0.064 4.1624,0.1186 9.591,0.1186 8.6969,0 9.636,0.025 9.636,0.2125 0,0.1186 -1.098,7.1811 -2.4398,15.6954 -1.3421,8.5145 -2.4403,15.5676 -2.4403,15.6734 0,0.1186 0.044,0.1433 0.1136,0.062 0.062,-0.069 8.0861,-10.7241 17.8266,-23.6742 z"
       style="fill:#ffffff;fill-opacity:1;stroke-width:0.135563"
       id="path4621-9"
       inkscape:export-filename="path4621.pdf"
       inkscape:export-xdpi="23.230803"
       inkscape:export-ydpi="23.230803"
       sodipodi:nodetypes="csssscssssssccc" /><g
       id="g580"
       transform="translate(-244.25641,-64.00508)" /><g
       id="g584-8"
       transform="matrix(-1,0,0,1,-787.89234,-99.0154)" /><g
       id="g1374-5-5-4-5"
       transform="matrix(0.50750867,0,0,0.50750867,820.53532,583.93555)"
       style="fill:#eeede8;fill-opacity:1;stroke:#000000"><g
         id="g1362-2-1-5-1"
         transform="translate(-20.616752,-57.937446)"
         style="fill:#eeede8;fill-opacity:1;stroke:#000000"><g
           id="g584-3-6-6-8-0-3"
           transform="rotate(180,-477.37717,349.98075)"
           style="fill:#eeede8;fill-opacity:1;stroke:#000000" /><g
           id="g584-3-4-6-1-52-1"
           transform="matrix(-1,0,0,1,-954.75434,0.44593477)"
           style="fill:#eeede8;fill-opacity:1;stroke:#000000" /></g><g
         id="g1356-0-2-1-6"
         style="fill:#eeede8;fill-opacity:1;stroke:#000000"><g
           id="g584-3-7-6-4-5"
           transform="translate(-446.78133,-57.491508)"
           style="fill:#eeede8;fill-opacity:1;stroke:#000000" /><g
           id="g584-3-3-2-7-4-8"
           transform="matrix(1,0,0,-1,-446.78133,642.02405)"
           style="fill:#eeede8;fill-opacity:1;stroke:#000000" /></g></g></g></svg>
