<?xml version="1.0" encoding="UTF-8" standalone="no"?>
<!-- Created with Inkscape (http://www.inkscape.org/) -->

<svg
   width="542.01953mm"
   height="947.06079mm"
   viewBox="0 0 542.01952 947.06081"
   version="1.1"
   id="svg5"
   xml:space="preserve"
   inkscape:version="1.2.2 (732a01da63, 2022-12-09)"
   sodipodi:docname="isotipo limpio.svg"
   inkscape:export-filename="isotipo limpio.png"
   inkscape:export-xdpi="15.834202"
   inkscape:export-ydpi="15.834202"
   xmlns:inkscape="http://www.inkscape.org/namespaces/inkscape"
   xmlns:sodipodi="http://sodipodi.sourceforge.net/DTD/sodipodi-0.dtd"
   xmlns="http://www.w3.org/2000/svg"
   xmlns:svg="http://www.w3.org/2000/svg"><sodipodi:namedview
     id="namedview7"
     pagecolor="#ffffff"
     bordercolor="#000000"
     borderopacity="0.25"
     inkscape:showpageshadow="2"
     inkscape:pageopacity="0.0"
     inkscape:pagecheckerboard="0"
     inkscape:deskcolor="#d1d1d1"
     inkscape:document-units="mm"
     showgrid="false"
     inkscape:zoom="0.088388348"
     inkscape:cx="1012.5769"
     inkscape:cy="2160.9183"
     inkscape:window-width="1536"
     inkscape:window-height="793"
     inkscape:window-x="2552"
     inkscape:window-y="-8"
     inkscape:window-maximized="1"
     inkscape:current-layer="g7303" /><defs
     id="defs2" /><g
     inkscape:label="Capa 1"
     inkscape:groupmode="layer"
     id="layer1"
     transform="translate(-211.92391,-2939.2897)"><g
       id="g580"
       transform="translate(-244.25641,-64.00508)" /><g
       id="g584-8"
       transform="matrix(-1,0,0,1,-787.89234,-99.0154)" /><g
       id="g1374-5-5-4-5"
       transform="matrix(0.50750867,0,0,0.50750867,820.53532,583.93555)"
       style="fill:#eeede8;fill-opacity:1;stroke:#000000"><g
         id="g1362-2-1-5-1"
         transform="translate(-20.616752,-57.937446)"
         style="fill:#eeede8;fill-opacity:1;stroke:#000000"><g
           id="g584-3-6-6-8-0-3"
           transform="rotate(180,-477.37717,349.98075)"
           style="fill:#eeede8;fill-opacity:1;stroke:#000000" /><g
           id="g584-3-4-6-1-52-1"
           transform="matrix(-1,0,0,1,-954.75434,0.44593477)"
           style="fill:#eeede8;fill-opacity:1;stroke:#000000" /></g><g
         id="g1356-0-2-1-6"
         style="fill:#eeede8;fill-opacity:1;stroke:#000000"><g
           id="g584-3-7-6-4-5"
           transform="translate(-446.78133,-57.491508)"
           style="fill:#eeede8;fill-opacity:1;stroke:#000000" /><g
           id="g584-3-3-2-7-4-8"
           transform="matrix(1,0,0,-1,-446.78133,642.02405)"
           style="fill:#eeede8;fill-opacity:1;stroke:#000000" /></g></g><g
       id="g7303"
       transform="matrix(4.9019608,0,0,4.9019608,1280.5463,-10610.071)"><g
         id="g4735"
         transform="translate(94.273106,14.267863)"
         style="fill:#e8e7e2;fill-opacity:1"><path
           d="m -229.16462,2827.088 c 0.1061,-0.044 4.9011,-2.7985 10.6556,-6.1203 6.1053,-3.5244 10.53958,-6.1164 10.64758,-6.224 0.1018,-0.1013 0.2367,-0.2959 0.2998,-0.4323 l 0.1147,-0.248 v -11.5922 -11.5921 l -0.1678,-0.2959 c -0.092,-0.1627 -0.2504,-0.362 -0.3513,-0.4428 -0.1009,-0.081 -3.62458,-2.133 -7.83038,-4.5604 -4.2059,-2.4275 -8.9286,-5.1538 -10.4949,-6.0586 -2.379,-1.3741 -2.8999,-1.6547 -3.1636,-1.7037 -0.2546,-0.047 -0.3699,-0.043 -0.5952,0.023 -0.1661,0.049 -3.1989,1.7666 -7.4787,4.2362 -3.9595,2.2849 -7.2799,4.234 -7.3786,4.3314 -0.099,0.097 -0.2343,0.2798 -0.3013,0.4053 l -0.122,0.2283 -0.015,4.6071 -0.015,4.6071 h -11.7792 -11.7793 l -0.014,-4.8233 c -0.014,-4.672 -0.018,-4.83 -0.1206,-5.0376 -0.058,-0.1179 -0.1933,-0.3003 -0.2996,-0.4053 -0.1144,-0.113 -3.0044,-1.8142 -7.0719,-4.1631 -3.7832,-2.1847 -6.9801,-4.0134 -7.1042,-4.0638 -0.13,-0.053 -0.3787,-0.093 -0.5866,-0.095 -0.3076,0 -0.4112,0.024 -0.7025,0.1769 -0.188,0.099 -4.3787,2.5338 -9.3128,5.4109 -4.9341,2.8771 -9.579,5.5853 -10.3221,6.0182 -0.7431,0.4329 -1.441,0.8565 -1.5509,0.9414 -0.1132,0.087 -0.2654,0.2879 -0.3512,0.4627 l -0.1515,0.3085 -0.014,11.3469 c -0.012,10.0219 0,11.3799 0.068,11.6295 0.057,0.1965 0.1603,0.3649 0.3382,0.5521 0.2231,0.2347 1.6039,1.0266 10.6881,6.1299 5.7376,3.2232 10.5388,5.9149 10.6695,5.9816 0.1306,0.067 0.3766,0.1337 0.5466,0.1492 0.2014,0.018 0.3918,0 0.5469,-0.053 0.1309,-0.045 3.3496,-1.9118 7.1528,-4.1493 3.8031,-2.2376 7.0089,-4.1559 7.1239,-4.2629 0.115,-0.107 0.2668,-0.3161 0.3373,-0.4648 l 0.1281,-0.2702 5e-4,-4.526 6e-4,-4.5261 h 11.7812 11.7813 v 4.5376 c 0,4.3979 0,4.5463 0.1076,4.825 0.066,0.1757 0.1971,0.3739 0.3377,0.5097 0.1493,0.1441 2.75,1.7039 7.3967,4.4362 3.9415,2.3177 7.2367,4.2395 7.3227,4.2708 0.086,0.031 0.3091,0.059 0.4959,0.061 0.1886,0 0.4253,-0.032 0.5325,-0.076 z m -24.118,-55.269 c 3.8831,-5.1626 7.0602,-9.4002 7.0602,-9.4169 0,-0.017 -1.9212,-0.03 -4.2694,-0.03 -4.1661,0 -4.2693,0 -4.2693,-0.1032 0,-0.057 0.3409,-2.8718 0.7575,-6.2555 0.4167,-3.3837 0.7511,-6.1789 0.7431,-6.2115 -0.01,-0.033 -2.9084,4.1716 -6.4455,9.3427 -3.5371,5.1712 -6.4392,9.4233 -6.4491,9.4493 -0.01,0.026 1.6594,0.047 3.8235,0.047 3.4671,0 3.8415,0.01 3.8415,0.085 0,0.047 -0.4377,2.8627 -0.9727,6.257 -0.535,3.3944 -0.9728,6.2061 -0.9728,6.2483 0,0.047 0.018,0.057 0.046,0.025 0.025,-0.028 3.2235,-4.2752 7.1066,-9.4378 z"
           style="fill:#e8e7e2;fill-opacity:1;stroke-width:0.0540426"
           id="path4621" /><path
           d="m -253.20267,2942.9225 c 0.2527,-0.03 0.8815,-0.08 1.3974,-0.1116 3.7554,-0.2704 7.5038,-2.8112 8.8167,-6.3128 0,-0.075 0.057,-0.2349 0.1275,-0.3564 0.078,-0.1357 0.1409,-0.355 0.1623,-0.5685 0.019,-0.1912 0.075,-0.4092 0.1246,-0.4845 0.074,-0.1127 0.1027,-0.4248 0.1627,-1.7601 0.04,-0.8928 0.061,-2.1339 0.046,-2.7581 -0.015,-0.6242 -0.041,-5.6096 -0.059,-11.0787 -0.03,-9.5937 -0.035,-9.9514 -0.1334,-10.16 -0.056,-0.1189 -0.1179,-0.3256 -0.1375,-0.4594 -0.9854,-3.4806 -4.13,-5.6716 -7.3185,-6.6535 -0.141,-0.065 -0.4362,-0.1301 -0.7025,-0.1551 -0.2527,-0.024 -0.7634,-0.088 -1.1349,-0.1435 -0.6235,-0.093 -1.0902,-0.1004 -6.0528,-0.1004 -5.0393,0 -5.3972,0.01 -5.6944,0.098 -0.1745,0.054 -0.5806,0.1193 -0.9024,0.1455 -3.4165,0.4501 -6.9518,3.1608 -7.8343,6.5356 -9e-4,0.1057 -0.062,0.3138 -0.1346,0.4624 -0.092,0.1863 -0.1332,0.3625 -0.1338,0.5674 -6e-4,0.1635 -0.037,0.6013 -0.081,0.9728 -0.069,0.5817 -0.076,2.1176 -0.05,11.0517 0.023,7.8749 0.049,10.7344 0.1066,11.8624 0.062,1.2066 0.097,1.542 0.1835,1.7834 0.059,0.1634 0.1083,0.358 0.1102,0.4323 0,0.074 0.063,0.2567 0.1364,0.4053 1.0942,2.9978 3.8774,5.9409 7.1054,6.4041 0.1635,0 0.431,0.052 0.5945,0.1109 0.2338,0.085 0.5313,0.1186 1.3953,0.1595 0.604,0.029 1.1256,0.069 1.1591,0.09 0.034,0.021 0.3541,0.055 0.7123,0.077 0.3583,0.022 2.2078,0.03 4.1101,0.019 1.9023,-0.011 3.6654,-0.045 3.9181,-0.075 z m -6.9174,-7.2911 c -0.3295,-0.022 -0.5754,-0.069 -0.6864,-0.1295 -0.095,-0.052 -0.268,-0.095 -0.3842,-0.095 -0.1351,0 -0.2817,-0.048 -0.4064,-0.1323 -0.1072,-0.073 -0.2788,-0.1481 -0.3812,-0.1673 -0.1025,-0.019 -0.2412,-0.093 -0.3083,-0.1649 -0.067,-0.071 -0.1508,-0.1299 -0.1859,-0.1299 -0.035,0 -0.1889,-0.1399 -0.3419,-0.3108 -0.1529,-0.1709 -0.3244,-0.3641 -0.3811,-0.4293 -0.057,-0.065 -0.1202,-0.199 -0.141,-0.2973 -0.021,-0.098 -0.081,-0.2272 -0.1332,-0.2867 -0.061,-0.069 -0.1085,-0.2438 -0.1315,-0.4799 -0.02,-0.2045 -0.073,-0.4599 -0.1187,-0.5675 -0.073,-0.1729 -0.082,-1.2141 -0.077,-8.9977 0,-5.196 0.027,-9.0927 0.059,-9.5115 0.029,-0.3901 0.066,-0.7823 0.081,-0.8715 0.015,-0.089 0.048,-0.4705 0.073,-0.8474 0.038,-0.5739 0.064,-0.709 0.1607,-0.8314 0.063,-0.08 0.1149,-0.2059 0.1149,-0.2789 0,-0.073 0.055,-0.2037 0.1216,-0.2904 0.067,-0.087 0.2675,-0.3019 0.4459,-0.4784 0.1783,-0.1764 0.3859,-0.3829 0.4613,-0.4589 0.075,-0.076 0.1741,-0.1382 0.2192,-0.1382 0.045,0 0.1645,-0.061 0.2652,-0.1351 0.1007,-0.074 0.2263,-0.1351 0.279,-0.1351 0.053,0 0.1907,-0.049 0.3065,-0.1097 0.1158,-0.06 0.3415,-0.1325 0.5015,-0.1603 0.1601,-0.028 0.4005,-0.09 0.5343,-0.1387 0.2118,-0.077 0.5465,-0.087 2.5942,-0.082 1.2931,0 2.4847,0.028 2.6481,0.055 0.1634,0.027 0.3578,0.072 0.4321,0.1 0.074,0.028 0.2559,0.069 0.4034,0.091 0.1476,0.022 0.3543,0.083 0.4594,0.1354 0.1051,0.053 0.3029,0.1492 0.4395,0.2142 0.1366,0.065 0.3833,0.2203 0.5481,0.3449 0.1648,0.1246 0.3585,0.2995 0.4306,0.3887 0.072,0.089 0.203,0.2715 0.291,0.4053 0.088,0.1337 0.2272,0.3812 0.3092,0.5498 0.096,0.1981 0.171,0.4754 0.211,0.7836 0.045,0.3449 0.06,3.2364 0.055,10.4374 0,6.9898 -0.024,10.0844 -0.067,10.3762 -0.036,0.2512 -0.1269,0.5544 -0.2289,0.766 -0.093,0.1926 -0.195,0.3848 -0.2269,0.4269 -0.032,0.042 -0.2719,0.2919 -0.5333,0.555 -0.2614,0.2631 -0.5071,0.4783 -0.5459,0.4783 -0.039,0 -0.1847,0.061 -0.3242,0.1348 -0.1395,0.074 -0.3559,0.1494 -0.4809,0.1671 -0.1251,0.018 -0.3733,0.081 -0.5516,0.1404 -0.3023,0.1008 -0.493,0.1093 -2.8102,0.1246 -1.3673,0.01 -2.717,7e-4 -2.9994,-0.019 z m 55.42058,7.2906 c 0.1412,0 0.2705,-0.047 0.3726,-0.1284 0.1558,-0.1247 0.156,-0.1257 0.054,-0.2527 -0.056,-0.07 -0.2726,-0.3028 -0.4806,-0.5169 -0.2081,-0.2141 -0.4999,-0.5246 -0.6486,-0.69 -0.1486,-0.1654 -0.4053,-0.4943 -0.4053,-0.4943 l -10.96978,-18.4534 c 0,0 -0.061,-0.1727 -0.1351,-0.2734 -0.074,-0.1007 -0.1351,-0.2228 -0.1351,-0.2713 0,-0.048 0.061,-0.1453 0.1351,-0.2151 0.074,-0.07 0.1351,-0.1759 0.1351,-0.2356 3.4364,-5.8248 6.3368,-11.8213 10.18828,-17.4093 0.046,-0.059 0.2166,-0.2743 0.3792,-0.4774 0.1626,-0.203 0.2956,-0.3956 0.2956,-0.4278 0,-0.032 0.036,-0.097 0.08,-0.1441 0.044,-0.047 0.1533,-0.1739 0.2432,-0.2819 0.1036,-0.1243 0.1635,-0.2569 0.1635,-0.3616 0,-0.091 -0.018,-0.1765 -0.041,-0.1902 -0.022,-0.014 -1.5848,-0.046 -3.4722,-0.071 -1.88738,-0.025 -4.50278,-0.046 -5.81198,-0.046 -2.2023,0 -2.3915,0.01 -2.5289,0.097 -0.082,0.054 -0.1729,0.1614 -0.2026,0.2396 -0.042,0.1107 -0.03,0.1989 0.056,0.399 0.061,0.1412 0.1104,0.3224 0.1104,0.4026 0,0.08 0.055,0.2337 0.1216,0.3412 0.1019,0.1637 0.1216,0.2721 0.1216,0.6661 0,0.3774 -0.023,0.5164 -0.1183,0.7025 -1.5682,3.0911 -3.1916,6.1676 -4.8126,9.1896 -0.075,0.1115 -0.1668,0.2027 -0.2042,0.2027 -0.037,0 -0.083,-0.039 -0.1007,-0.086 -0.018,-0.047 -0.033,-0.2089 -0.033,-0.2089 l -4.5615,-9.0285 c 0,0 -0.1941,-0.4142 -0.1941,-0.8583 0,-0.3834 0.021,-0.5141 0.107,-0.6525 0.059,-0.095 0.1467,-0.3534 0.1952,-0.5738 0.049,-0.2205 0.1002,-0.4534 0.1147,-0.5177 0.018,-0.08 -0.01,-0.1354 -0.085,-0.1763 -0.079,-0.043 -1.8209,-0.055 -6.1095,-0.045 -4.8349,0.011 -6.0119,0.028 -6.0686,0.084 -0.039,0.039 -0.07,0.1764 -0.07,0.3062 0,0.1742 0.033,0.2689 0.125,0.3621 0.069,0.069 0.4822,0.4966 0.9187,0.9495 0.4366,0.4529 0.8902,0.9458 0.8902,0.9458 l 0.1892,0.2641 9.3318,15.8277 c 0,0 0.1184,0.2148 0.1642,0.312 0.046,0.097 0.1289,0.2225 0.1846,0.2783 0.056,0.056 0.1184,0.179 0.1393,0.2739 0.021,0.095 0.022,0.2781 0,0.407 -0.019,0.129 -0.08,0.2913 -0.1345,0.3607 -0.055,0.07 -0.1386,0.2111 -0.1866,0.3146 -0.048,0.1035 -0.1599,0.2977 -0.2486,0.4314 -0.089,0.1338 -0.2118,0.3405 -0.2734,0.4594 -0.062,0.1189 -0.1538,0.2907 -0.205,0.3819 -0.051,0.091 -0.147,0.2343 -0.2129,0.318 -0.066,0.084 -0.1198,0.1947 -0.1198,0.2465 0,0.052 -0.04,0.1272 -0.088,0.1676 -0.049,0.04 -0.1341,0.171 -0.1899,0.2903 -0.056,0.1193 -0.1603,0.3142 -0.2322,0.4331 -0.072,0.1189 -0.1838,0.312 -0.2487,0.429 -0.065,0.117 -0.1496,0.2444 -0.1883,0.2831 -0.039,0.039 -0.087,0.1453 -0.1069,0.2368 -0.02,0.091 -0.069,0.1787 -0.1083,0.1938 -0.04,0.015 -0.1081,0.1183 -0.1524,0.2291 -0.044,0.1109 -0.1192,0.2336 -0.1664,0.2727 -0.047,0.039 -0.086,0.1 -0.086,0.1351 0,0.035 -0.061,0.1463 -0.1351,0.247 -0.074,0.1007 -0.1351,0.2241 -0.1351,0.2741 0,0.05 -0.04,0.124 -0.088,0.1644 -0.049,0.04 -0.134,0.171 -0.1897,0.2903 -0.056,0.1193 -0.1735,0.3264 -0.2617,0.4602 -0.088,0.1337 -0.1853,0.304 -0.2156,0.3783 -0.03,0.074 -0.079,0.1715 -0.1087,0.2161 -0.029,0.045 -0.1155,0.1905 -0.1911,0.3243 -0.076,0.1337 -0.1967,0.3405 -0.269,0.4593 -0.072,0.1189 -0.1839,0.3238 -0.248,0.4554 -0.064,0.1315 -0.1381,0.2653 -0.1646,0.2972 -0.026,0.032 -0.1082,0.1499 -0.1817,0.2621 -0.073,0.1123 -0.1494,0.2704 -0.1685,0.3513 -0.019,0.081 -0.078,0.1959 -0.1306,0.2553 -0.053,0.059 -0.1334,0.1993 -0.1793,0.3108 -0.046,0.1114 -0.1072,0.2026 -0.1361,0.2026 -0.029,0 -0.082,0.088 -0.1171,0.1954 -0.035,0.1075 -0.1103,0.2413 -0.1663,0.2973 -0.056,0.056 -0.1018,0.1345 -0.1018,0.1745 0,0.04 -0.046,0.1147 -0.1033,0.1661 -0.057,0.051 -0.1191,0.1569 -0.1386,0.2344 -0.019,0.078 -0.095,0.2114 -0.167,0.2974 -0.072,0.086 -0.1316,0.2002 -0.1316,0.2537 0,0.054 -0.04,0.1304 -0.088,0.1708 -0.049,0.04 -0.1341,0.171 -0.1899,0.2903 -0.056,0.1193 -0.1726,0.3385 -0.2593,0.4872 -0.087,0.1486 -0.1728,0.3066 -0.1913,0.3512 -0.018,0.045 -0.068,0.1419 -0.1107,0.2162 -0.042,0.074 -0.1166,0.2202 -0.1648,0.3243 -0.048,0.104 -0.1338,0.2326 -0.1901,0.2858 -0.056,0.053 -0.1024,0.1527 -0.1024,0.2213 0,0.068 -0.051,0.1704 -0.1126,0.2265 -0.062,0.056 -0.1483,0.1753 -0.192,0.265 -0.044,0.09 -0.1246,0.244 -0.1797,0.3426 -0.055,0.099 -0.137,0.2203 -0.1821,0.2702 -0.045,0.05 -0.098,0.1555 -0.1176,0.2344 -0.02,0.079 -0.094,0.1987 -0.1664,0.2661 -0.072,0.067 -0.1305,0.1653 -0.1305,0.2174 0,0.052 -0.033,0.1282 -0.074,0.1689 -0.041,0.041 -0.1143,0.1519 -0.1635,0.2471 -0.049,0.095 -0.1144,0.173 -0.1449,0.173 -0.03,0 -0.092,0.089 -0.1377,0.197 -0.045,0.1083 -0.117,0.2317 -0.1594,0.274 -0.042,0.042 -0.077,0.099 -0.077,0.1249 0,0.026 -0.098,0.1523 -0.2187,0.2799 -0.1203,0.1276 -0.2575,0.305 -0.3048,0.3942 -0.047,0.089 -0.2355,0.3445 -0.418,0.5674 -0.1825,0.2229 -0.4037,0.5026 -0.4915,0.6215 -0.088,0.1189 -0.2209,0.2812 -0.2956,0.3608 -0.075,0.079 -0.2574,0.2841 -0.4061,0.4546 -0.1486,0.1705 -0.3127,0.3479 -0.3647,0.3943 -0.052,0.046 -0.095,0.1256 -0.095,0.176 0,0.05 0.015,0.1301 0.033,0.1771 0.029,0.076 0.2811,0.086 2.2833,0.086 1.2377,0 3.9024,0.026 5.9216,0.057 2.7125,0.041 3.7094,0.04 3.818,0 0.093,-0.038 0.157,-0.1139 0.1743,-0.2043 0.015,-0.079 -0.01,-0.2094 -0.049,-0.2902 -0.042,-0.081 -0.076,-0.2032 -0.076,-0.272 0,-0.069 -0.047,-0.2126 -0.1042,-0.3196 -0.057,-0.107 -0.1215,-0.289 -0.1425,-0.4045 -0.021,-0.1155 -0.088,-0.3073 -0.1492,-0.4262 -0.082,-0.1605 -0.1114,-0.3205 -0.1124,-0.6215 -10e-4,-0.3413 0.022,-0.4471 0.1454,-0.6701 0.081,-0.1456 0.1467,-0.2922 0.1467,-0.3257 1.508,-2.9573 3.1738,-5.8415 4.6814,-8.8395 0.047,-0.1038 0.1381,-0.2525 0.2016,-0.3305 0.063,-0.078 0.1412,-0.1857 0.1727,-0.2394 0.05,-0.086 0.072,-0.067 0.1739,0.1506 0.064,0.1365 0.1683,0.2801 0.1683,0.2801 l 4.505,8.408 c 0,0 0.572,1.2615 0.3655,2.1631 0,0.1051 -0.052,0.2875 -0.1148,0.4053 -0.063,0.1177 -0.1338,0.3412 -0.1573,0.4967 -0.024,0.1554 -0.093,0.3471 -0.1557,0.4261 -0.069,0.087 -0.1129,0.2225 -0.1129,0.3458 0,0.1112 0.03,0.2268 0.067,0.2569 0.043,0.035 1.6834,0.068 4.6072,0.092 2.4967,0.021 5.14748,0.055 5.89058,0.077 0.7431,0.022 1.5821,0.033 1.8645,0.026 0.2823,-0.01 0.6106,-0.016 0.7295,-0.018 z m -83.64338,-0.2343 c 4.633,-0.9946 7.0055,-3.5209 7.9475,-8.064 0.078,-0.372 0.09,-0.8241 0.09,-3.2425 0,-2.4806 -0.01,-2.8293 -0.087,-2.9724 -0.5788,-2.4814 -1.9923,-5.1804 -4.578,-5.9921 -0.2942,-0.058 -0.3076,-0.068 -0.3242,-0.2413 -0.011,-0.1147 0.016,-0.218 0.075,-0.2828 1.5722,-0.8948 3.2185,-2.3419 3.6454,-4.205 7e-4,-0.1075 0.051,-0.3048 0.1128,-0.4386 0.087,-0.1884 0.1336,-0.496 0.2093,-1.3672 0.084,-0.9713 0.091,-1.353 0.049,-2.8102 -0.027,-0.9274 -0.071,-2.2334 -0.098,-2.9021 -0.034,-0.8274 -0.078,-1.3196 -0.1385,-1.5402 -0.678,-3.0619 -3.4205,-5.7698 -6.4893,-6.3033 -0.2273,-0.028 -0.6112,-0.099 -0.8531,-0.1567 -0.4288,-0.1028 -0.7208,-0.1055 -11.6713,-0.1058 l -11.2315,-6e-4 -0.1635,0.1635 c -0.1305,0.1306 -0.1562,0.1923 -0.1276,0.3065 0.02,0.079 0.083,0.2029 0.1406,0.2761 0.058,0.073 0.1048,0.1772 0.1048,0.2311 0,0.054 0.061,0.2123 0.1351,0.3521 0.074,0.1397 0.1352,0.293 0.1353,0.3406 0,0.048 0.045,0.16 0.1,0.2499 0.055,0.09 0.1307,0.2601 0.1687,0.3783 0.038,0.1182 0.1005,0.2514 0.1388,0.296 0.038,0.044 0.088,0.1783 0.1097,0.2972 0.022,0.1189 0.083,0.277 0.1346,0.3513 0.052,0.074 0.1099,0.2844 0.1287,0.4669 0.019,0.1826 0.082,0.4677 0.1402,0.6337 0.1044,0.2972 0.106,0.5373 0.1048,15.8539 -10e-4,15.401 0,15.5544 -0.1085,15.7887 -0.059,0.1302 -0.1229,0.3369 -0.1419,0.4594 -0.019,0.1225 -0.093,0.3443 -0.1647,0.4929 -0.072,0.1486 -0.1745,0.3553 -0.2285,0.4594 -0.054,0.104 -0.116,0.2742 -0.1378,0.3783 -0.022,0.104 -0.083,0.2378 -0.1353,0.2972 -0.053,0.059 -0.1112,0.1959 -0.1303,0.3033 -0.019,0.1074 -0.083,0.2389 -0.1418,0.2921 -0.059,0.053 -0.107,0.1506 -0.107,0.2163 0,0.066 -0.047,0.1794 -0.1047,0.2526 -0.058,0.073 -0.1222,0.2026 -0.1435,0.2874 -0.021,0.085 -0.096,0.2383 -0.1655,0.3411 -0.075,0.1113 -0.1267,0.2662 -0.1267,0.3834 0,0.1081 0.04,0.2531 0.088,0.3222 0.048,0.069 0.1639,0.159 0.2567,0.1998 0.1415,0.062 2.0414,0.072 11.7878,0.062 11.036,-0.012 11.6281,-0.017 11.7957,-0.1085 z m -12.8173,-7.1098 c -0.018,-0.029 -0.047,-2.0797 -0.063,-4.5568 -0.018,-2.6055 -0.01,-4.5721 0.018,-4.6659 l 0.048,-0.1621 h 1.5362 c 0.845,0 2.6671,0.031 4.0493,0.068 1.3821,0.038 2.8034,0.095 3.1585,0.128 0.4092,0.038 0.7159,0.095 0.8376,0.1568 0.1057,0.053 0.3016,0.1139 0.4353,0.1345 0.1338,0.021 0.3162,0.081 0.4054,0.1339 0.089,0.053 0.2419,0.1134 0.3393,0.134 0.098,0.021 0.2517,0.1144 0.3427,0.2085 0.091,0.094 0.2021,0.2561 0.247,0.3601 0.045,0.1041 0.1142,0.226 0.1541,0.2711 0.04,0.045 0.1,0.2028 0.1328,0.3504 0.033,0.1477 0.098,0.3101 0.1439,0.3609 0.065,0.072 0.095,0.3207 0.1347,1.1088 0.028,0.5589 0.035,1.527 0.016,2.1512 -0.028,0.9217 -0.053,1.1769 -0.1323,1.3589 -0.054,0.1232 -0.1149,0.3056 -0.1359,0.4053 -0.021,0.1 -0.107,0.303 -0.1911,0.4518 -0.084,0.1487 -0.2875,0.4041 -0.4521,0.5674 -0.1647,0.1634 -0.3669,0.3485 -0.4495,0.4114 -0.083,0.063 -0.228,0.1315 -0.3232,0.1524 -0.095,0.021 -0.2377,0.089 -0.3165,0.1507 -0.097,0.076 -0.2601,0.124 -0.5025,0.1473 -0.1974,0.019 -0.4198,0.07 -0.4941,0.1131 -0.1145,0.067 -0.802,0.081 -4.5206,0.096 -2.8236,0.011 -4.3971,0 -4.4182,-0.036 z m 1.3458,-16.6332 c -0.1189,-0.011 -0.4467,-0.045 -0.7285,-0.076 -0.2819,-0.031 -0.5615,-0.088 -0.6215,-0.1277 -0.1081,-0.071 -0.1091,-0.1168 -0.1091,-4.7634 v -4.6919 l 0.1437,-0.038 c 0.079,-0.021 1.5626,-0.018 3.2966,0.01 1.7341,0.025 3.3961,0.071 3.6933,0.1023 0.2972,0.032 0.805,0.081 1.1284,0.111 0.4027,0.037 0.641,0.086 0.7566,0.1554 0.093,0.056 0.2598,0.1178 0.3713,0.1376 0.1114,0.02 0.2026,0.059 0.2026,0.087 0,0.028 0.095,0.111 0.2116,0.1844 0.1163,0.073 0.3048,0.2285 0.4188,0.3445 0.114,0.1161 0.2586,0.2813 0.3213,0.3671 0.063,0.086 0.1329,0.2168 0.1561,0.2911 0.023,0.074 0.087,0.1932 0.1427,0.264 0.055,0.071 0.1009,0.1925 0.1012,0.2703 6e-4,0.078 0.045,0.3237 0.1,0.5466 0.088,0.3599 0.097,0.5898 0.078,2.0536 -0.012,0.9066 -0.043,1.7334 -0.069,1.8375 -0.026,0.104 -0.064,0.3715 -0.085,0.5944 -0.029,0.3116 -0.068,0.4407 -0.1664,0.5581 -0.071,0.084 -0.1286,0.1813 -0.1289,0.2162 -5e-4,0.035 -0.099,0.1667 -0.2202,0.2931 -0.1209,0.1263 -0.2403,0.2297 -0.2655,0.2297 -0.025,0 -0.1199,0.062 -0.2104,0.1384 -0.091,0.076 -0.2761,0.1978 -0.4124,0.2702 -0.1362,0.073 -0.2793,0.1318 -0.3179,0.1318 -0.039,0 -0.1783,0.057 -0.3105,0.1278 -0.1719,0.091 -0.3773,0.1392 -0.721,0.1678 -0.2644,0.022 -0.5915,0.078 -0.7269,0.1237 -0.2078,0.071 -0.682,0.086 -3.0295,0.095 -1.5308,0.01 -2.8805,0 -2.9994,-0.01 z m 0.077,-23.6147 c 0.1404,-0.1181 0.1663,-0.1779 0.1663,-0.3833 0,-0.1605 -0.036,-0.2896 -0.1067,-0.379 -0.059,-0.075 -0.1224,-0.2243 -0.1417,-0.3328 -0.019,-0.1084 -0.078,-0.2458 -0.1309,-0.3052 -0.053,-0.059 -0.1122,-0.2093 -0.1323,-0.333 -0.02,-0.1237 -0.083,-0.2673 -0.1408,-0.3191 -0.057,-0.052 -0.1042,-0.1477 -0.1042,-0.2129 0,-0.065 -0.057,-0.2257 -0.1261,-0.3564 -0.069,-0.1308 -0.1433,-0.3107 -0.1644,-0.3999 -0.021,-0.089 -0.085,-0.2594 -0.141,-0.3783 -0.056,-0.1189 -0.1415,-0.3742 -0.1889,-0.5674 -0.047,-0.1932 -0.1084,-0.4486 -0.1358,-0.5675 -0.028,-0.1236 -0.051,-2.5348 -0.052,-5.6295 0,-2.9773 0.012,-5.4519 0.031,-5.499 0.029,-0.076 0.2936,-0.085 2.4598,-0.083 h 2.4269 l 0.1422,0.2253 c 1.7309,3.8073 3.1533,7.6661 4.9396,11.3799 0.035,0.1091 0.109,0.2742 0.1649,0.3669 0.065,0.1081 0.1015,0.2704 0.1015,0.453 0,0.182 -0.036,0.3451 -0.1012,0.4529 -0.056,0.093 -0.1173,0.3145 -0.137,0.4928 -0.02,0.1783 -0.08,0.4094 -0.1333,0.5134 -0.054,0.104 -0.1136,0.3078 -0.1332,0.4529 -0.02,0.145 -0.085,0.3445 -0.1465,0.4432 -0.086,0.1385 -0.1072,0.251 -0.095,0.4929 l 0.016,0.3133 0.5945,0.034 c 0.3269,0.018 1.1538,0.037 1.8374,0.042 0.6836,0 1.8023,0.03 2.486,0.056 0.6836,0.026 2.6534,0.03 4.3774,0.01 2.4738,-0.032 3.18,-0.057 3.3506,-0.1169 0.1812,-0.064 0.2188,-0.1028 0.2323,-0.241 0.011,-0.1123 -0.019,-0.1968 -0.095,-0.2651 -0.061,-0.055 -0.1107,-0.1196 -0.1107,-0.1433 0,-0.024 -0.1208,-0.2085 -0.2685,-0.4105 -0.1476,-0.202 -0.3481,-0.4767 -0.4455,-0.6105 -3.0054,-4.6597 -5.0058,-9.827 -7.3135,-14.7537 -0.039,-0.045 -0.098,-0.1518 -0.131,-0.2382 -0.053,-0.1395 -0.043,-0.1741 0.086,-0.3094 0.08,-0.084 0.2331,-0.1802 0.3396,-0.2143 0.1066,-0.034 0.2424,-0.1048 0.3019,-0.1571 0.06,-0.052 0.1688,-0.1136 0.2432,-0.1359 2.878,-1.3634 4.4326,-4.1384 5.2135,-7.0194 0.069,-0.1596 0.1031,-0.4833 0.1399,-1.324 0.027,-0.6121 0.049,-2.8517 0.049,-4.9769 0,-2.1252 -0.023,-4.3262 -0.052,-4.891 -0.032,-0.6258 -0.084,-1.1325 -0.1347,-1.2971 -0.6441,-3.219 -3.295,-6.0182 -6.5412,-6.6495 -0.1777,-0.018 -0.4447,-0.083 -0.5933,-0.1444 -0.2154,-0.088 -0.4621,-0.1204 -1.216,-0.1575 -0.5202,-0.026 -1.5902,-0.07 -2.3779,-0.098 -0.7877,-0.028 -2.6481,-0.039 -4.1343,-0.025 -1.4861,0.014 -2.9453,0.037 -3.2425,0.05 -0.2972,0.013 -3.3007,0.039 -6.6743,0.058 -3.3736,0.018 -6.2068,0.051 -6.2959,0.072 -0.091,0.021 -0.1928,0.097 -0.2316,0.1702 -0.038,0.072 -0.057,0.2143 -0.043,0.3151 0.015,0.1009 0.073,0.2347 0.1299,0.2973 0.057,0.063 0.12,0.1849 0.1406,0.2717 0.021,0.087 0.085,0.2178 0.1422,0.291 0.058,0.073 0.1047,0.1874 0.1047,0.2537 0,0.066 0.046,0.1785 0.1011,0.2494 0.056,0.071 0.119,0.214 0.1409,0.318 0.022,0.104 0.083,0.2621 0.1356,0.3513 0.053,0.089 0.1128,0.2581 0.1337,0.3754 0.021,0.1173 0.082,0.269 0.1354,0.337 0.053,0.068 0.1147,0.263 0.136,0.4333 0.021,0.1702 0.084,0.4238 0.1388,0.5635 0.097,0.2452 0.1005,0.8644 0.1112,17.9441 l 0.011,17.6901 -0.1166,0.2275 c -0.064,0.1252 -0.1165,0.286 -0.1165,0.3575 0,0.072 -0.05,0.1931 -0.1104,0.2703 -0.061,0.077 -0.1459,0.26 -0.1893,0.4062 -0.043,0.1461 -0.1128,0.2939 -0.1542,0.3282 -0.041,0.034 -0.092,0.1528 -0.1123,0.2632 -0.02,0.1104 -0.081,0.2494 -0.1345,0.3088 -0.054,0.059 -0.1158,0.1689 -0.1382,0.2432 -0.022,0.074 -0.086,0.1931 -0.1413,0.264 -0.055,0.071 -0.1007,0.1853 -0.1007,0.2543 0,0.069 -0.061,0.215 -0.1351,0.3245 -0.074,0.1095 -0.1347,0.2626 -0.1343,0.3402 5e-4,0.078 0.015,0.1949 0.033,0.2607 0.018,0.066 0.1206,0.1738 0.2289,0.2399 0.1083,0.066 0.3185,0.1365 0.4671,0.1565 0.1486,0.02 2.8279,0.04 5.954,0.044 l 5.6839,0.01 0.1662,-0.1399 z m 2.5442,-23.2078 c -0.4607,-0.02 -1.0687,-0.064 -1.3511,-0.1 -0.2824,-0.035 -0.9754,-0.082 -1.5402,-0.1031 l -1.0268,-0.039 -0.027,-6.5423 c -0.015,-3.5983 -0.014,-6.6139 10e-4,-6.7013 l 0.028,-0.1589 0.9031,0.01 c 0.4967,0.01 1.3109,0.047 1.8093,0.092 0.4984,0.045 1.8668,0.099 3.0408,0.1191 1.5789,0.027 2.2051,0.056 2.4049,0.1127 0.1487,0.042 0.4333,0.1068 0.6326,0.1443 0.1993,0.037 0.406,0.1074 0.4594,0.1555 0.053,0.048 0.1645,0.1043 0.247,0.1249 0.082,0.021 0.1746,0.083 0.2046,0.1393 0.03,0.056 0.083,0.1019 0.118,0.1019 0.035,0 0.1942,0.1398 0.354,0.3107 0.1598,0.1709 0.3273,0.3959 0.3723,0.4999 0.045,0.104 0.1129,0.2256 0.1508,0.2702 0.038,0.045 0.086,0.2589 0.1063,0.4763 0.021,0.2173 0.077,0.5092 0.1246,0.6485 0.075,0.2194 0.09,0.6925 0.1078,3.5372 0.02,3.1289 0.016,3.3037 -0.086,3.7019 -0.059,0.2299 -0.1347,0.5574 -0.1691,0.7278 -0.034,0.1704 -0.086,0.3241 -0.1138,0.3415 -0.028,0.017 -0.098,0.1211 -0.1541,0.2306 -0.057,0.1094 -0.2231,0.3328 -0.37,0.4964 -0.1469,0.1637 -0.4711,0.4355 -0.7205,0.604 -0.2493,0.1686 -0.5448,0.3233 -0.6566,0.3437 -0.1117,0.02 -0.2932,0.083 -0.4032,0.1391 -0.15,0.076 -0.316,0.1019 -0.6636,0.1019 -0.255,0 -0.6085,0.038 -0.7857,0.085 -0.1771,0.047 -0.6018,0.1069 -0.9436,0.1339 -0.3418,0.027 -0.7552,0.045 -0.9187,0.041 -0.1635,0 -0.6742,-0.025 -1.1349,-0.044 z m 94.87018,23.2978 c 0.3422,-0.039 0.4505,-0.073 0.5269,-0.1676 0.053,-0.065 0.096,-0.1854 0.096,-0.267 0,-0.082 -0.062,-0.2181 -0.1381,-0.3047 -0.076,-0.086 -0.2697,-0.3268 -0.4307,-0.5349 -0.1609,-0.208 -0.3359,-0.4363 -0.3889,-0.5072 -0.053,-0.071 -0.1691,-0.2084 -0.2583,-0.3054 -0.089,-0.097 -0.2047,-0.2323 -0.2567,-0.3008 -0.052,-0.068 -0.095,-0.1539 -0.095,-0.1898 0,-0.036 -0.1168,-0.2073 -0.2595,-0.3809 -0.1427,-0.1735 -0.3543,-0.4613 -0.4703,-0.6397 -0.1159,-0.1783 -0.2423,-0.3564 -0.2809,-0.3956 -0.039,-0.039 -0.07,-0.1043 -0.07,-0.1445 0,-0.04 -0.058,-0.1418 -0.1277,-0.2258 -3.2288,-5.9743 -6.32618,-12.0461 -9.58318,-18.0409 -0.032,-0.059 -0.086,-0.1689 -0.1186,-0.2432 -0.033,-0.074 -0.1304,-0.2567 -0.2172,-0.4053 -0.087,-0.1486 -0.2328,-0.4139 -0.3246,-0.5896 -0.092,-0.1756 -0.1669,-0.3627 -0.1669,-0.4156 0,-0.053 0.024,-0.1114 0.054,-0.1299 0.03,-0.018 0.1004,-0.1233 0.1565,-0.2329 3.1194,-5.6304 6.88278,-10.8998 10.32688,-16.3271 0,-0.019 0.1834,-0.2289 0.4076,-0.4654 0.2242,-0.2366 0.6115,-0.649 0.8608,-0.9165 0.2492,-0.2675 0.5395,-0.5958 0.6451,-0.7296 0.1056,-0.1338 0.314,-0.3983 0.4633,-0.5878 0.1492,-0.1896 0.2709,-0.3842 0.2704,-0.4324 -5e-4,-0.048 -0.024,-0.1241 -0.052,-0.1687 -0.045,-0.071 -0.8427,-0.083 -6.544,-0.096 -4.85508,-0.011 -6.51188,6e-4 -6.56818,0.047 -0.042,0.035 -0.075,0.1609 -0.075,0.2864 0,0.1231 0.045,0.3086 0.1002,0.4122 0.055,0.1036 0.1179,0.2845 0.1396,0.402 0.022,0.1175 0.087,0.3064 0.1446,0.4198 0.058,0.1134 0.127,0.3794 0.1536,0.5912 0.028,0.2228 0.028,0.5077 9e-4,0.6763 -0.026,0.1602 -0.097,0.3545 -0.1581,0.4319 -0.061,0.077 -0.1106,0.175 -0.1106,0.217 -3.3112,4.5638 -5.7247,10.3127 -9.2713,14.6762 -0.02,0.067 -0.1011,0.2245 -0.1793,0.3503 -0.08,0.1279 -0.1779,0.2228 -0.2232,0.2154 -0.072,-0.012 -0.083,-0.8596 -0.095,-7.1888 l -0.014,-7.1755 0.1353,-0.2541 c 0.074,-0.1398 0.1353,-0.2912 0.1353,-0.3365 0,-0.045 0.045,-0.1671 0.1008,-0.2707 0.055,-0.1035 0.1177,-0.2648 0.1382,-0.3583 0.021,-0.094 0.085,-0.2128 0.1423,-0.2651 0.058,-0.052 0.1051,-0.1338 0.1052,-0.1813 0,-0.047 0.073,-0.2321 0.162,-0.4104 0.089,-0.1783 0.1618,-0.357 0.1619,-0.397 0,-0.04 0.046,-0.1373 0.1016,-0.2162 0.056,-0.079 0.1179,-0.2199 0.1381,-0.3134 0.02,-0.094 0.084,-0.2124 0.1408,-0.2642 0.057,-0.052 0.119,-0.1742 0.1374,-0.2722 0.018,-0.098 0.08,-0.2201 0.1362,-0.2712 0.07,-0.063 0.1027,-0.1656 0.1027,-0.3194 0,-0.1561 -0.033,-0.2562 -0.1056,-0.322 -0.1,-0.09 -0.4356,-0.095 -6.0933,-0.087 l -5.9877,0.01 -0.2027,0.1334 c -0.1359,0.09 -0.202,0.1733 -0.2007,0.2543 0.001,0.066 0.037,0.1817 0.079,0.256 0.043,0.074 0.078,0.1965 0.079,0.2717 0,0.075 0.042,0.194 0.091,0.2643 0.049,0.07 0.1102,0.2398 0.1356,0.3768 0.025,0.137 0.091,0.3109 0.1471,0.3865 0.055,0.076 0.119,0.2459 0.1412,0.3783 0.022,0.1325 0.082,0.3017 0.1339,0.376 0.052,0.074 0.108,0.2612 0.1255,0.4153 0.018,0.1541 0.086,0.3973 0.151,0.5404 0.065,0.1431 0.1372,0.4305 0.1592,0.6385 0.022,0.2081 0.079,0.4687 0.1271,0.5793 0.079,0.1833 0.087,1.7488 0.087,17.8546 0,17.2229 0,17.6579 -0.1023,17.8223 -0.056,0.093 -0.1202,0.2536 -0.1421,0.3577 -0.022,0.104 -0.085,0.2471 -0.141,0.318 -0.056,0.071 -0.101,0.1817 -0.101,0.2462 0,0.064 -0.061,0.1997 -0.1351,0.3004 -0.074,0.1008 -0.1356,0.2088 -0.1361,0.2402 -6e-4,0.031 -0.084,0.2208 -0.1854,0.4208 -0.1013,0.2 -0.2225,0.4183 -0.2692,0.4849 -0.047,0.067 -0.085,0.1568 -0.085,0.2002 0,0.044 -0.048,0.1307 -0.1077,0.1938 -0.059,0.063 -0.1302,0.2347 -0.1576,0.3812 -0.04,0.2131 -0.032,0.2958 0.037,0.4131 0.072,0.1214 0.1382,0.1531 0.3872,0.1845 0.1654,0.021 2.0517,0.022 4.1917,0 2.1608,-0.02 4.564,-0.071 5.4043,-0.1152 0.8323,-0.044 1.7616,-0.08 2.0652,-0.081 0.5061,0 0.5572,-0.011 0.6132,-0.1155 0.036,-0.068 0.047,-0.2083 0.027,-0.345 -0.019,-0.127 -0.081,-0.2726 -0.1372,-0.3237 -0.056,-0.051 -0.1177,-0.1614 -0.1361,-0.2452 -0.018,-0.084 -0.093,-0.2162 -0.1652,-0.2944 -0.072,-0.078 -0.1318,-0.1979 -0.1318,-0.2661 0,-0.068 -0.046,-0.166 -0.1032,-0.2173 -0.057,-0.051 -0.1179,-0.1518 -0.1358,-0.2232 -0.018,-0.071 -0.093,-0.2189 -0.167,-0.3278 -0.074,-0.109 -0.1344,-0.2334 -0.1344,-0.2766 0,-0.043 -0.049,-0.1403 -0.1081,-0.2159 -0.059,-0.076 -0.1082,-0.1767 -0.1083,-0.2247 0,-0.048 -0.06,-0.1846 -0.1335,-0.3035 -0.073,-0.1189 -0.1339,-0.293 -0.1348,-0.387 -9e-4,-0.094 -0.055,-0.3249 -0.1212,-0.5134 -0.1177,-0.3374 -0.1197,-0.3944 -0.1369,-3.8063 -0.012,-2.348 8e-4,-3.5057 0.04,-3.5939 0.031,-0.072 0.129,-0.2394 0.2171,-0.3732 0.866,-1.3318 1.6264,-2.7999 2.6542,-3.9716 0.1294,-0.1358 0.2553,-0.2827 0.2798,-0.3264 0.024,-0.044 0.065,-0.079 0.091,-0.079 0.026,0 0.1217,0.102 0.2134,0.2268 0.092,0.1247 0.1669,0.2732 0.1669,0.3299 0,0.057 0.061,0.1754 0.1351,0.2637 0.074,0.088 0.1351,0.2153 0.1351,0.2822 1.8904,3.9286 4.1672,7.8817 6.0562,11.8584 0.035,0.1091 0.1115,0.2511 0.1703,0.3156 0.089,0.097 0.1068,0.1947 0.1068,0.5726 0,0.3443 -0.026,0.5066 -0.1059,0.6662 -0.058,0.1162 -0.1196,0.3449 -0.1361,0.5084 -0.017,0.1635 -0.08,0.4067 -0.1415,0.5404 -0.066,0.1444 -0.1118,0.3575 -0.1125,0.5244 l -0.001,0.2812 0.2531,0.1119 c 0.2101,0.093 0.4185,0.1189 1.2294,0.1526 0.537,0.022 3.10428,0.046 5.70508,0.052 2.6008,0.01 4.9226,-0.01 5.1596,-0.037 z m -51.23088,-0.1174 c 0.327,-0.03 0.9715,-0.074 1.4322,-0.097 4.7459,-0.43 8.8061,-4.2587 9.7952,-8.78 l 0.1216,-0.549 v -11.0517 c 0,-10.383 -0.01,-11.0772 -0.096,-11.474 -0.053,-0.2323 -0.1108,-0.5728 -0.1292,-0.7566 -0.9565,-4.4519 -5.5031,-7.1628 -9.6915,-7.7121 -0.1932,-0.029 -0.5509,-0.078 -0.7949,-0.1089 -0.2883,-0.037 -1.9156,-0.05 -4.6477,-0.038 -3.7921,0.017 -4.2301,0.028 -4.4704,0.1109 -0.1576,0.055 -0.5215,0.105 -0.8917,0.1235 -4.5011,0.3368 -8.193,3.4304 -9.5523,7.607 -0.047,0.091 -0.1042,0.4513 -0.1376,0.8654 -0.037,0.4652 -0.054,3.5512 -0.047,8.9514 0,4.5328 0.031,9.5791 0.057,11.2139 0.04,2.4952 0.062,3.0243 0.1374,3.2965 0.049,0.1784 0.1102,0.5394 0.1356,0.8023 0.714,3.3923 4.3177,6.8897 7.8481,7.2298 0.2624,0.024 0.5919,0.084 0.7322,0.1339 0.2087,0.073 0.6196,0.099 2.2548,0.1388 1.0997,0.027 2.34,0.081 2.7561,0.1202 0.523,0.049 1.3491,0.065 2.6752,0.05 1.0551,-0.012 2.186,-0.046 2.5129,-0.077 z m -5.8906,-7.2857 c -0.327,-0.021 -0.6497,-0.068 -0.7172,-0.1048 -0.068,-0.037 -0.3178,-0.089 -0.5562,-0.1166 -0.2977,-0.034 -0.4775,-0.084 -0.5736,-0.1597 -0.077,-0.061 -0.1794,-0.1102 -0.2274,-0.1102 -0.048,-10e-5 -0.1571,-0.06 -0.2425,-0.1336 -0.085,-0.073 -0.2017,-0.1482 -0.2585,-0.1662 -0.057,-0.018 -0.1693,-0.094 -0.2501,-0.168 -0.081,-0.074 -0.2252,-0.2119 -0.321,-0.3058 -0.096,-0.094 -0.1893,-0.2395 -0.2077,-0.3237 -0.018,-0.084 -0.068,-0.166 -0.1091,-0.1819 -0.042,-0.016 -0.1042,-0.1298 -0.1394,-0.2531 -0.035,-0.1232 -0.1005,-0.2673 -0.1454,-0.3203 -0.052,-0.061 -0.1076,-0.3365 -0.1531,-0.7566 -0.039,-0.3632 -0.095,-0.7333 -0.1245,-0.8225 -0.034,-0.1025 -0.058,-3.4582 -0.067,-9.1332 -0.013,-8.1922 -0.01,-8.9898 0.074,-9.1872 0.049,-0.1189 0.1063,-0.3741 0.1284,-0.5672 0.023,-0.2012 0.1048,-0.4842 0.1915,-0.6631 0.083,-0.1717 0.2503,-0.4305 0.3714,-0.5752 0.1212,-0.1447 0.2203,-0.2816 0.2203,-0.3042 0,-0.023 0.089,-0.1275 0.1977,-0.2331 0.1088,-0.1057 0.2806,-0.2483 0.3818,-0.317 0.1012,-0.069 0.2676,-0.1597 0.3697,-0.2024 0.1021,-0.043 0.1857,-0.1021 0.1857,-0.1319 0,-0.03 0.091,-0.071 0.2027,-0.091 0.1114,-0.02 0.2513,-0.08 0.3107,-0.1333 0.059,-0.053 0.2651,-0.1254 0.4571,-0.1599 0.1919,-0.034 0.4108,-0.094 0.4863,-0.1324 0.076,-0.038 0.2528,-0.086 0.3938,-0.1069 0.141,-0.021 0.9921,-0.037 1.8915,-0.037 0.8993,0 1.9391,0.015 2.3107,0.034 0.4903,0.025 0.7403,0.063 0.912,0.1383 0.1301,0.057 0.3,0.1042 0.3776,0.1042 0.077,0 0.275,0.063 0.4389,0.1401 0.1639,0.077 0.3507,0.1683 0.415,0.2027 0.064,0.034 0.2545,0.1573 0.4227,0.2731 0.1682,0.1157 0.4743,0.4105 0.6802,0.655 0.2341,0.2781 0.3875,0.513 0.4094,0.6272 0.019,0.1004 0.083,0.2518 0.1425,0.3363 0.07,0.1002 0.1221,0.2977 0.1496,0.5674 0.023,0.2276 0.069,0.4829 0.1013,0.5673 0.041,0.1077 0.055,1.5499 0.045,4.8368 -0.01,2.5758 -0.01,6.41 -7e-4,8.5203 0.01,2.1427 -0.01,4.0995 -0.039,4.4315 -0.029,0.327 -0.076,0.8469 -0.1062,1.1553 -0.033,0.3425 -0.088,0.6126 -0.1412,0.6937 -0.048,0.073 -0.1216,0.2495 -0.164,0.392 -0.042,0.1424 -0.1133,0.2892 -0.1578,0.3262 -0.044,0.037 -0.081,0.098 -0.081,0.1354 0,0.038 -0.1034,0.1855 -0.2297,0.3287 -0.1263,0.1432 -0.3269,0.3527 -0.4458,0.4655 -0.1189,0.1128 -0.2428,0.2051 -0.2754,0.2051 -0.033,0 -0.1027,0.048 -0.156,0.107 -0.053,0.059 -0.1789,0.1225 -0.2791,0.1413 -0.1002,0.019 -0.2437,0.082 -0.3188,0.1416 -0.082,0.064 -0.2722,0.1243 -0.4724,0.1492 -0.1847,0.023 -0.4574,0.085 -0.606,0.1375 -0.2361,0.084 -0.5124,0.097 -2.1887,0.1091 -1.0552,0.01 -2.186,0 -2.513,-0.024 z m -0.324,-36.5647 c 0.089,-0.059 0.2098,-0.1344 0.2679,-0.1665 0.058,-0.032 0.1252,-0.1417 0.1493,-0.2432 0.024,-0.1016 0.073,-0.2334 0.1081,-0.2928 0.04,-0.067 0.079,-0.5095 0.1025,-1.1619 0.021,-0.5796 0.04,-1.4791 0.043,-1.9988 0.01,-0.9239 0,-0.9514 -0.1412,-1.2334 -0.08,-0.1586 -0.1952,-0.3147 -0.2554,-0.347 -0.076,-0.041 -1.1417,-0.055 -3.484,-0.047 l -3.3745,0.012 -0.3422,0.3005 -0.3423,0.3005 v 2.2694 2.2694 l 0.2027,0.1881 c 0.1115,0.1035 0.2513,0.209 0.3108,0.2344 0.059,0.025 1.5672,0.041 3.3506,0.035 3.1428,-0.011 3.2475,-0.014 3.4049,-0.119 z m 11.05,-0.01 c 0.093,-0.078 0.2269,-0.2566 0.2978,-0.3966 0.091,-0.1803 0.1385,-0.3867 0.1618,-0.709 0.018,-0.25 0.054,-1.0925 0.081,-1.8721 0.038,-1.1352 0.033,-1.5103 -0.028,-1.884 -0.042,-0.2565 -0.1036,-0.5003 -0.1378,-0.5415 -0.034,-0.041 -0.086,-0.075 -0.1147,-0.075 -0.029,0 -0.1143,-0.049 -0.1898,-0.1081 -0.1337,-0.1051 -0.2193,-0.1081 -3.1294,-0.1081 h -2.992 l -0.2639,0.1897 c -0.1452,0.1043 -0.295,0.2645 -0.3329,0.356 -0.054,0.1299 -0.061,0.5932 -0.034,2.1161 0.035,1.9395 0.036,1.9516 0.1773,2.3056 0.078,0.1957 0.2058,0.4465 0.2839,0.5572 0.078,0.1108 0.2027,0.2244 0.277,0.2525 0.078,0.029 1.3292,0.053 2.9547,0.055 h 2.8195 l 0.169,-0.1421 z"
           style="fill:#e8e7e2;fill-opacity:1;stroke-width:0.0540426"
           id="path4664" /></g></g></g></svg>
